<mxfile host="65bd71144e">
    <diagram id="QIVO87R8mxKBDa6YOj8y" name="第 1 页">
        <mxGraphModel dx="272" dy="315" grid="1" gridSize="10" guides="1" tooltips="1" connect="1" arrows="1" fold="1" page="1" pageScale="1" pageWidth="827" pageHeight="1169" math="0" shadow="0">
            <root>
                <mxCell id="0"/>
                <mxCell id="1" parent="0"/>
                <mxCell id="2" value="" style="shape=curlyBracket;whiteSpace=wrap;html=1;rounded=1;labelPosition=left;verticalLabelPosition=middle;align=right;verticalAlign=middle;" vertex="1" parent="1">
                    <mxGeometry x="90" y="60" width="50" height="120" as="geometry"/>
                </mxCell>
                <mxCell id="26" style="edgeStyle=none;html=1;entryX=0.015;entryY=0.629;entryDx=0;entryDy=0;entryPerimeter=0;" edge="1" parent="1" source="3" target="24">
                    <mxGeometry relative="1" as="geometry"/>
                </mxCell>
                <mxCell id="3" value="基座模式" style="whiteSpace=wrap;html=1;align=right;rounded=1;" vertex="1" parent="1">
                    <mxGeometry x="160" y="90" width="120" height="60" as="geometry"/>
                </mxCell>
                <mxCell id="25" value="" style="edgeStyle=none;html=1;" edge="1" parent="1" source="5" target="24">
                    <mxGeometry relative="1" as="geometry"/>
                </mxCell>
                <mxCell id="5" value="自组织模式" style="whiteSpace=wrap;html=1;align=right;rounded=1;arcSize=22;" vertex="1" parent="1">
                    <mxGeometry x="160" y="10" width="120" height="60" as="geometry"/>
                </mxCell>
                <mxCell id="11" value="" style="edgeStyle=none;html=1;" edge="1" parent="1" source="6" target="10">
                    <mxGeometry relative="1" as="geometry"/>
                </mxCell>
                <mxCell id="12" value="" style="edgeStyle=none;html=1;" edge="1" parent="1" source="6" target="10">
                    <mxGeometry relative="1" as="geometry"/>
                </mxCell>
                <mxCell id="15" value="" style="edgeStyle=none;html=1;" edge="1" parent="1" source="6" target="14">
                    <mxGeometry relative="1" as="geometry"/>
                </mxCell>
                <mxCell id="6" value="模块加载模式&lt;br&gt;（没有中心容器）" style="whiteSpace=wrap;html=1;align=right;rounded=1;" vertex="1" parent="1">
                    <mxGeometry x="160" y="170" width="120" height="60" as="geometry"/>
                </mxCell>
                <mxCell id="7" value="微前端&lt;br&gt;落地方案" style="whiteSpace=wrap;html=1;align=right;rounded=1;" vertex="1" parent="1">
                    <mxGeometry x="10" y="100" width="80" height="50" as="geometry"/>
                </mxCell>
                <mxCell id="19" style="edgeStyle=none;html=1;entryX=0.175;entryY=0.009;entryDx=0;entryDy=0;entryPerimeter=0;" edge="1" parent="1" source="10" target="17">
                    <mxGeometry relative="1" as="geometry"/>
                </mxCell>
                <mxCell id="10" value="任意一个app可以作为入口，&lt;br&gt;无相互依赖，独立部署的app合并成一个" style="whiteSpace=wrap;html=1;align=right;rounded=1;" vertex="1" parent="1">
                    <mxGeometry x="320" y="170" width="170" height="60" as="geometry"/>
                </mxCell>
                <mxCell id="18" value="" style="edgeStyle=none;html=1;" edge="1" parent="1" source="14" target="17">
                    <mxGeometry relative="1" as="geometry"/>
                </mxCell>
                <mxCell id="29" value="" style="edgeStyle=none;html=1;" edge="1" parent="1" source="14" target="28">
                    <mxGeometry relative="1" as="geometry"/>
                </mxCell>
                <mxCell id="56" style="edgeStyle=none;html=1;entryX=0.5;entryY=0;entryDx=0;entryDy=0;" edge="1" parent="1" source="14" target="55">
                    <mxGeometry relative="1" as="geometry"/>
                </mxCell>
                <mxCell id="14" value="2020年10月webpack5带来了module federation(模块联邦MF)" style="whiteSpace=wrap;html=1;align=right;rounded=1;" vertex="1" parent="1">
                    <mxGeometry x="320" y="240" width="170" height="60" as="geometry"/>
                </mxCell>
                <mxCell id="21" value="" style="edgeStyle=none;html=1;" edge="1" parent="1" source="17" target="20">
                    <mxGeometry relative="1" as="geometry">
                        <Array as="points">
                            <mxPoint x="680" y="200"/>
                        </Array>
                    </mxGeometry>
                </mxCell>
                <mxCell id="23" value="" style="edgeStyle=none;html=1;" edge="1" parent="1" source="17" target="22">
                    <mxGeometry relative="1" as="geometry"/>
                </mxCell>
                <mxCell id="17" value="提供能在当前app中加载其他app的能力" style="whiteSpace=wrap;html=1;align=right;rounded=1;" vertex="1" parent="1">
                    <mxGeometry x="530" y="240" width="120" height="60" as="geometry"/>
                </mxCell>
                <mxCell id="20" value="1.expose导出app" style="ellipse;whiteSpace=wrap;html=1;align=right;rounded=1;" vertex="1" parent="1">
                    <mxGeometry x="680" y="150" width="110" height="90" as="geometry"/>
                </mxCell>
                <mxCell id="22" value="2.remote引入其他app" style="ellipse;whiteSpace=wrap;html=1;align=right;rounded=1;" vertex="1" parent="1">
                    <mxGeometry x="680" y="260" width="130" height="80" as="geometry"/>
                </mxCell>
                <mxCell id="24" value="由容器中心加载其他app" style="ellipse;whiteSpace=wrap;html=1;align=right;rounded=1;arcSize=22;" vertex="1" parent="1">
                    <mxGeometry x="320" y="30" width="140" height="80" as="geometry"/>
                </mxCell>
                <mxCell id="35" value="" style="edgeStyle=none;html=1;" edge="1" parent="1" source="28" target="34">
                    <mxGeometry relative="1" as="geometry">
                        <Array as="points"/>
                    </mxGeometry>
                </mxCell>
                <mxCell id="43" style="edgeStyle=none;html=1;exitX=1;exitY=1;exitDx=0;exitDy=0;" edge="1" parent="1" source="28" target="41">
                    <mxGeometry relative="1" as="geometry"/>
                </mxCell>
                <mxCell id="28" value="how to use" style="rhombus;whiteSpace=wrap;html=1;align=right;rounded=1;" vertex="1" parent="1">
                    <mxGeometry x="365" y="330" width="80" height="80" as="geometry"/>
                </mxCell>
                <mxCell id="40" value="" style="edgeStyle=none;html=1;" edge="1" parent="1" source="34" target="39">
                    <mxGeometry relative="1" as="geometry"/>
                </mxCell>
                <mxCell id="34" value="1.webpack5,&lt;br&gt;config中引入MF插件" style="rounded=1;whiteSpace=wrap;html=1;align=right;" vertex="1" parent="1">
                    <mxGeometry x="470" y="370" width="120" height="60" as="geometry"/>
                </mxCell>
                <mxCell id="48" value="" style="edgeStyle=none;html=1;" edge="1" parent="1" source="39" target="47">
                    <mxGeometry relative="1" as="geometry"/>
                </mxCell>
                <mxCell id="49" value="" style="edgeStyle=none;html=1;" edge="1" parent="1" source="39" target="47">
                    <mxGeometry relative="1" as="geometry"/>
                </mxCell>
                <mxCell id="50" value="" style="edgeStyle=none;html=1;" edge="1" parent="1" source="39" target="47">
                    <mxGeometry relative="1" as="geometry"/>
                </mxCell>
                <mxCell id="51" value="" style="edgeStyle=none;html=1;" edge="1" parent="1" source="39" target="47">
                    <mxGeometry relative="1" as="geometry"/>
                </mxCell>
                <mxCell id="53" style="edgeStyle=none;html=1;entryX=0;entryY=0.5;entryDx=0;entryDy=0;" edge="1" parent="1" source="39" target="52">
                    <mxGeometry relative="1" as="geometry"/>
                </mxCell>
                <mxCell id="39" value="1.导出一个微应用（可以是多个module组成）&lt;br&gt;2.remote导入远程模块（微app名称@地址/导出的文件名）&lt;br&gt;plugin: new Mfp({filename,name,&lt;br&gt;expose:{ em.js }，remote:{} &lt;br&gt;})" style="whiteSpace=wrap;html=1;align=right;rounded=1;" vertex="1" parent="1">
                    <mxGeometry x="620" y="370" width="310" height="100" as="geometry"/>
                </mxCell>
                <mxCell id="46" style="edgeStyle=none;html=1;exitX=1;exitY=0.5;exitDx=0;exitDy=0;" edge="1" parent="1" source="41" target="45">
                    <mxGeometry relative="1" as="geometry"/>
                </mxCell>
                <mxCell id="41" value="2.配置完导入，如何使用？&lt;br&gt;在remote app中的scr/index.js中import使用。" style="whiteSpace=wrap;html=1;align=right;rounded=1;" vertex="1" parent="1">
                    <mxGeometry x="420" y="510" width="160" height="60" as="geometry"/>
                </mxCell>
                <mxCell id="45" value="import('appone/exposeModule).then(res=&amp;gt;{&lt;br&gt;res.default('use me')))&lt;br&gt;返回的是一个promise" style="whiteSpace=wrap;html=1;align=right;rounded=1;" vertex="1" parent="1">
                    <mxGeometry x="620" y="510" width="310" height="60" as="geometry"/>
                </mxCell>
                <mxCell id="47" value="所以expose App打包后的dist中，有em.js，&lt;br&gt;先通过remote的init方法，将自身写入remote中，再通过get获取remote中expose的组件。" style="whiteSpace=wrap;html=1;align=right;rounded=1;" vertex="1" parent="1">
                    <mxGeometry x="960" y="300" width="180" height="100" as="geometry"/>
                </mxCell>
                <mxCell id="52" value="所以remote App打包后的dist中，有bundle.js，里有promise加载了em.js的 URL路径" style="whiteSpace=wrap;html=1;align=right;rounded=1;" vertex="1" parent="1">
                    <mxGeometry x="960" y="420" width="180" height="80" as="geometry"/>
                </mxCell>
                <mxCell id="58" value="" style="edgeStyle=none;html=1;" edge="1" parent="1" source="55" target="57">
                    <mxGeometry relative="1" as="geometry"/>
                </mxCell>
                <mxCell id="55" value="好处&amp;nbsp; &amp;nbsp; &amp;nbsp;" style="rhombus;whiteSpace=wrap;html=1;align=right;rounded=1;" vertex="1" parent="1">
                    <mxGeometry x="285" y="330" width="80" height="80" as="geometry"/>
                </mxCell>
                <mxCell id="57" value="1.资源复用，以减少编译体积。可将多个app的通用组件单独部署。在运行时引入到其他app中。" style="whiteSpace=wrap;html=1;align=right;rounded=1;" vertex="1" parent="1">
                    <mxGeometry x="210" y="440" width="175" height="70" as="geometry"/>
                </mxCell>
            </root>
        </mxGraphModel>
    </diagram>
</mxfile>